P2
32 30
255
251 161 157 136 132 130 134 117 124 124
121 124 132 120 121 115 123 131 128 126
123 131 131 134 138 138 140 138 142 139
139 137 138 133 133 126 131 123 124 126
124 126 124 120 130 124 131 123 124 132
133 139 135 137 139 136 142 139 144 142
140 142 135 137 136 145 147 141 146 140
145 133 136 134 134 135 129 123 124 122
130 134 137 144 144 139 144 140 142 139
142 139 139 139 137 135 136 144 142 139
145 147 137 124 133 126 127 127 126 131
141 138 136 142 138 135 136 141 147 140
130 132 135 138 136 133 135 134 133 151
143 138 137 144 137 125 138 137 121 133
123 122 134 140 153 164 156 150 142 144
143 141 136 130 135 139 142 140 138 137
137 149 156 159 130 129 130 128 141 135
136 127 126 126 131 152 165 195 194 168
138 149 156 152 143 131 135 142 144 141
144 139 142 145 140 130 151 131 155 136
138 130 130 101 126 158 149 132 130 139
130 139 142 151 157 159 149 138 137 138
142 140 139 136 136 145 148 133 139 127
142 130 136 152 138 122 161 146 106 108
141 113 95 130 154 150 152 133 131 131
133 131 135 133 135 133 131 133 130 140
145 138 133 127 134 122 126 140 98 71
97 125 154 132 90 134 187 202 160 118
121 126 129 127 129 133 139 140 139 131
123 133 127 125 115 118 137 113 116 96
89 84 115 150 106 154 172 193 223 220
175 124 125 127 126 137 141 143 152 145
140 138 121 121 121 118 137 125 125 104
92 74 109 74 60 68 78 178 214 182
213 183 169 143 114 120 123 140 141 151
154 146 143 139 134 136 135 111 132 141
129 128 113 136 163 172 108 116 64 120
188 133 125 88 106 150 126 147 137 142
136 133 138 137 134 135 127 122 125 133
144 126 114 137 159 157 200 145 126 201
164 91 158 159 149 78 103 135 168 173
138 132 133 137 144 142 143 144 145 143
126 134 128 104 113 190 163 92 177 191
170 216 121 100 186 186 132 45 130 117
128 151 154 146 144 144 141 142 142 141
131 153 139 136 142 132 123 154 116 88
208 187 109 227 162 101 157 183 140 98
80 93 126 130 156 157 159 155 142 131
143 153 137 133 121 112 132 129 130 110
135 156 209 162 109 153 146 119 175 150
187 136 49 79 131 134 151 148 150 138
134 131 131 166 150 127 125 130 134 122
116 104 100 110 191 129 89 93 183 158
172 140 169 173 82 94 133 141 168 151
143 139 135 119 126 167 152 139 142 133
117 100 114 103 62 77 112 92 53 69
150 176 207 117 159 122 105 152 152 154
160 156 128 133 131 126 117 145 133 149
149 145 134 132 145 107 86 100 109 102
80 72 141 119 127 201 209 155 199 165
177 173 154 152 124 132 139 134 124 118
110 113 125 142 129 122 136 151 161 121
105 119 88 40 114 155 143 228 185 187
210 150 188 194 153 124 124 135 131 134
131 129 122 135 140 141 128 126 123 162
184 132 94 175 146 47 88 158 215 226
213 162 170 140 166 181 140 128 123 133
128 133 126 130 134 146 147 138 133 125
121 137 191 127 94 177 206 134 108 127
161 160 168 149 146 125 152 157 126 140
138 120 122 131 128 140 130 139 153 129
121 114 95 113 203 157 130 163 227 198
152 114 79 106 64 113 162 143 141 146
139 133 121 112 136 133 142 121 104 129
132 131 108 107 93 138 238 187 125 130
215 206 223 169 73 31 0 94 153 162
164 149 135 117 127 136 135 133 145 118
113 134 130 113 123 158 178 175 255 171
135 135 198 216 222 164 155 88 52 80
126 162 184 160 132 156 145 139 133 133
143 140 145 148 137 144 166 150 105 132
206 195 150 156 173 160 177 157 110 93
86 95 116 143 162 133 150 157 167 156
136 135 135 139 152 167 151 131 156 129
101 125 149 129 156 129 164 113 90 114
54 100 129 185 148 145 160 149 174 129
157 146 124 126 135 151 178 175 158 148
135 122 107 132 174 166 126 103 104 135
131 135 122 149 180 152 123 129 135 148
164 117 138 91 132 115 123 185 186 172
179 135 142 122 86 117 147 162 131 95
106 67 72 122 96 131 148 118 115 121
120 136 174 127 124 97 106 125 114 182
176 177 181 120 104 114 73 131 172 204
202 142 179 134 117 115 108 119 129 117
150 142 135 149 177 158 155 132 108 105

